HIERARCHY
ROOT Hips
{
	OFFSET 0.00000 0.00000 0.00000
	CHANNELS 6 Xposition Yposition Zposition Zrotation Yrotation Xrotation 
	JOINT LHipJoint
	{
		OFFSET 0 0 0
		CHANNELS 3 Zrotation Yrotation Xrotation
		JOINT LeftUpLeg
		{
			OFFSET 1.09156 -1.61406 0.76500
			CHANNELS 3 Zrotation Yrotation Xrotation
			JOINT LeftLeg
			{
				OFFSET 2.33750 -6.42225 0.00000
				CHANNELS 3 Zrotation Yrotation Xrotation
				JOINT LeftFoot
				{
					OFFSET 2.49247 -6.84800 0.00000
					CHANNELS 3 Zrotation Yrotation Xrotation
					JOINT LeftToeBase
					{
						OFFSET 0.15312 -0.42069 1.45461
						CHANNELS 3 Zrotation Yrotation Xrotation
						End Site
						{
							OFFSET 0.00000 -0.00000 0.77046
						}
					}
				}
			}
		}
	}
	JOINT RHipJoint
	{
		OFFSET 0 0 0
		CHANNELS 3 Zrotation Yrotation Xrotation
		JOINT RightUpLeg
		{
			OFFSET -0.99883 -1.61406 0.76500
			CHANNELS 3 Zrotation Yrotation Xrotation
			JOINT RightLeg
			{
				OFFSET -2.36877 -6.50815 0.00000
				CHANNELS 3 Zrotation Yrotation Xrotation
				JOINT RightFoot
				{
					OFFSET -2.53452 -6.96353 0.00000
					CHANNELS 3 Zrotation Yrotation Xrotation
					JOINT RightToeBase
					{
						OFFSET -0.13156 -0.36145 1.63237
						CHANNELS 3 Zrotation Yrotation Xrotation
						End Site
						{
							OFFSET -0.00000 -0.00000 0.84979
						}
					}
				}
			}
		}
	}
	JOINT LowerBack
	{
		OFFSET 0 0 0
		CHANNELS 3 Zrotation Yrotation Xrotation
		JOINT Spine
		{
			OFFSET -0.02431 1.98242 -0.13616
			CHANNELS 3 Zrotation Yrotation Xrotation
			JOINT Spine1
			{
				OFFSET 0.03629 1.98974 -0.02954
				CHANNELS 3 Zrotation Yrotation Xrotation
				JOINT Neck
				{
					OFFSET 0 0 0
					CHANNELS 3 Zrotation Yrotation Xrotation
					JOINT Neck1
					{
						OFFSET 0.09349 1.40783 0.22333
						CHANNELS 3 Zrotation Yrotation Xrotation
						JOINT Head
						{
							OFFSET -0.04273 1.44500 -0.06495
							CHANNELS 3 Zrotation Yrotation Xrotation
							End Site
							{
								OFFSET -0.02251 1.44600 -0.04544
							}
						}
					}
				}
				JOINT LeftShoulder
				{
					OFFSET 0 0 0
					CHANNELS 3 Zrotation Yrotation Xrotation
					JOINT LeftArm
					{
						OFFSET 3.49137 0.85126 -0.29740
						CHANNELS 3 Zrotation Yrotation Xrotation
						JOINT LeftForeArm
						{
							OFFSET 5.06035 -0.00000 0.00000
							CHANNELS 3 Zrotation Yrotation Xrotation
							JOINT LeftHand
							{
								OFFSET 3.14780 -0.00000 0.00000
								CHANNELS 3 Zrotation Yrotation Xrotation
								JOINT LeftFingerBase
								{
									OFFSET 0 0 0
									CHANNELS 3 Zrotation Yrotation Xrotation
									JOINT LeftHandIndex1
									{
										OFFSET 0.60675 -0.00000 0.00000
										CHANNELS 3 Zrotation Yrotation Xrotation
										End Site
										{
											OFFSET 0.48918 -0.00000 0.00000
										}
									}
								}
								JOINT LThumb
								{
									OFFSET 0 0 0
									CHANNELS 3 Zrotation Yrotation Xrotation
									End Site
									{
										OFFSET 0.49664 -0.00000 0.49664
									}
								}
							}
						}
					}
				}
				JOINT RightShoulder
				{
					OFFSET 0 0 0
					CHANNELS 3 Zrotation Yrotation Xrotation
					JOINT RightArm
					{
						OFFSET -3.28101 0.69707 0.00747
						CHANNELS 3 Zrotation Yrotation Xrotation
						JOINT RightForeArm
						{
							OFFSET -5.12273 -0.00000 -0.00000
							CHANNELS 3 Zrotation Yrotation Xrotation
							JOINT RightHand
							{
								OFFSET -3.42200 -0.00000 0.00000
								CHANNELS 3 Zrotation Yrotation Xrotation
								JOINT RightFingerBase
								{
									OFFSET 0 0 0
									CHANNELS 3 Zrotation Yrotation Xrotation
									JOINT RightHandIndex1
									{
										OFFSET -0.70460 -0.00000 0.00000
										CHANNELS 3 Zrotation Yrotation Xrotation
										End Site
										{
											OFFSET -0.56807 -0.00000 0.00000
										}
									}
								}
								JOINT RThumb
								{
									OFFSET 0 0 0
									CHANNELS 3 Zrotation Yrotation Xrotation
									End Site
									{
										OFFSET -0.57674 -0.00000 0.57674
									}
								}
							}
						}
					}
				}
			}
		}
	}
}
MOTION
Frames: 10
Frame Time: .0083333
24.3438 16.5443 -6.0046 -181.8110 33.4372 -169.3800 0.0000 0.0000 0.0000 -15.7179 -1.9776 10.2870 0.6235 5.0529 14.0594 0.2257 6.2768 8.9117 5.1844 13.5885 41.6133 0.0000 0.0000 0.0000 19.9920 3.2749 -20.4200 -1.4621 -7.6420 21.6317 -0.3364 -4.8322 -13.8085 -0.0032 0.3646 -1.0017 -0.7125 -3.1528 -0.1847 2.3148 -4.1623 3.4240 2.6338 -2.0941 3.8552 1.3840 -1.9420 -3.6545 -1.3609 -2.4880 -6.9285 -0.6465 -1.1663 -1.5697 0.0000 -0.0000 0.0000 80.6967 -60.5523 -93.3198 24.6488 -35.8428 -8.0833 -0.0000 -0.0000 15.8283 49.4836 47.0492 40.5799 -7.1250 0.0000 -0.0000 70.1203 86.6375 66.9220 0.0000 -0.0000 0.0000 -67.0359 54.1273 -64.7791 -20.0819 30.7409 -5.5731 0.0000 0.0000 18.6411 -26.9958 29.1382 -13.9312 7.1250 -0.0000 -0.0000 2.1908 2.0310 2.2687
24.3417 16.5460 -6.0061 -181.7740 33.4422 -169.1530 0.0000 0.0000 0.0000 -15.6240 -1.8353 10.2094 0.5927 4.9289 13.7058 0.2385 6.1849 9.0916 5.0603 13.4514 41.0826 0.0000 0.0000 0.0000 19.9899 3.5249 -20.5296 -1.4519 -7.6165 21.5551 -0.3044 -5.2190 -13.6544 -0.0299 1.1171 -3.0712 -0.7029 -3.1853 -0.1312 2.2832 -4.2084 3.2917 2.6008 -2.1169 3.6866 1.9067 -1.8068 -4.0174 -1.5965 -2.3129 -7.2670 -0.8116 -1.0785 -1.6255 -0.0000 0.0000 0.0000 80.3052 -60.4275 -92.3851 24.7674 -35.9653 -8.1529 -0.0000 -0.0000 15.5067 47.9623 45.3718 38.2860 -7.1250 0.0000 -0.0000 44.1546 85.2111 40.7148 -0.0000 0.0000 0.0000 -66.9145 54.1456 -64.5393 -20.1551 30.8288 -5.6106 0.0000 0.0000 18.7439 -26.9650 29.3546 -14.0038 7.1250 -0.0000 -0.0000 2.2446 2.2513 2.3328
24.3387 16.5466 -6.0078 -181.7690 33.4028 -169.0190 0.0000 0.0000 0.0000 -15.5627 -1.7578 10.2614 0.5574 4.7824 13.2889 0.2504 6.0264 9.2398 5.0211 13.4075 40.9136 0.0000 0.0000 0.0000 19.9364 3.8080 -20.5321 -1.4411 -7.5893 21.4733 -0.2840 -5.5131 -13.6020 -0.0239 0.9980 -2.7432 -0.7309 -3.3234 -0.0948 2.3272 -4.3934 3.2498 2.6578 -2.2107 3.6385 1.2120 -1.8506 -4.5169 -0.7513 -2.2665 -8.0653 -0.4338 -1.0283 -1.7719 -0.0000 -0.0000 0.0000 79.7796 -60.2247 -91.7700 24.7288 -35.9255 -8.1303 -0.0000 -0.0000 15.6777 41.5466 40.4163 29.8791 -7.1250 0.0000 -0.0000 12.8916 78.4102 10.0657 -0.0000 -0.0000 0.0000 -67.4357 54.1610 -64.5490 -20.1336 30.8029 -5.5996 0.0000 0.0000 18.9638 -26.7705 29.6683 -14.0207 7.1250 -0.0000 -0.0000 2.4091 2.5343 2.5155
24.3365 16.5497 -6.0114 -181.7140 33.3316 -168.8680 0.0000 0.0000 0.0000 -15.4829 -1.8546 10.4117 0.5214 4.6276 12.8493 0.2522 5.9262 9.2449 5.0010 13.3849 40.8269 0.0000 0.0000 0.0000 19.9095 4.1802 -20.4809 -1.4321 -7.5665 21.4051 -0.2779 -5.6907 -13.6683 -0.0000 0.0184 -0.0506 -0.5988 -3.2947 -0.1050 2.2017 -4.3575 3.2067 2.4573 -2.1876 3.5768 1.6847 -1.6086 -5.0540 -1.1352 -1.9568 -8.2190 -0.6372 -0.8699 -1.7382 -0.0000 -0.0000 0.0000 80.7488 -60.1194 -92.7353 24.5782 -35.7697 -8.0420 -0.0000 -0.0000 15.8071 41.0496 40.4004 29.4400 -7.1250 0.0000 -0.0000 11.5915 78.2246 9.0018 -0.0000 -0.0000 0.0000 -66.9203 54.0704 -63.7216 -20.1389 30.8094 -5.6023 0.0000 0.0000 19.1999 -26.5665 29.9216 -14.0051 7.1250 -0.0000 -0.0000 2.5687 2.7509 2.6917
24.3348 16.5522 -6.0164 -181.5500 33.2387 -168.6420 0.0000 0.0000 0.0000 -15.2528 -1.8085 10.4648 0.4916 4.4956 12.4752 0.2558 5.7939 9.2734 4.9788 13.3598 40.7308 0.0000 0.0000 0.0000 20.0304 4.3460 -20.5083 -1.4225 -7.5423 21.3324 -0.2605 -5.9337 -13.6253 -0.0050 0.4566 -1.2547 -0.4117 -3.5034 -0.0575 2.3098 -4.6401 3.1369 2.4592 -2.3237 3.4861 1.1102 -1.5612 -5.5959 -0.8106 -1.7986 -9.0183 -0.4430 -0.7520 -1.8905 -0.0000 0.0000 0.0000 80.3763 -59.9367 -92.8241 24.2997 -35.4796 -7.8798 -0.0000 -0.0000 16.4396 49.9675 47.1967 41.1330 -7.1250 0.0000 -0.0000 76.9190 86.6470 73.6261 -0.0000 0.0000 0.0000 -67.4861 54.2251 -63.5443 -20.3266 31.0339 -5.6988 0.0000 0.0000 19.5208 -26.2710 30.2050 -13.9461 7.1250 -0.0000 -0.0000 2.7855 2.9764 2.9298
24.3359 16.5487 -6.0187 -181.3440 33.1534 -168.4230 0.0000 0.0000 0.0000 -14.9244 -1.5382 10.4053 0.4693 4.3938 12.1872 0.2674 5.6168 9.4194 4.9887 13.3711 40.7739 0.0000 0.0000 0.0000 20.2537 4.2513 -20.6099 -1.4111 -7.5134 21.2455 -0.2721 -5.7829 -13.6639 -0.0001 0.0519 -0.1426 -0.3509 -3.6651 0.0036 2.4679 -4.8584 3.0255 2.5881 -2.4324 3.3562 1.2419 -1.4897 -6.0452 -1.3070 -1.6940 -9.5646 -0.6242 -0.6737 -1.9986 -0.0000 -0.0000 0.0000 80.2646 -59.9238 -93.2470 24.0153 -35.1805 -7.7154 -0.0000 -0.0000 17.1273 47.3431 45.3010 37.6489 -7.1250 0.0000 -0.0000 39.3518 85.0605 36.1129 -0.0000 -0.0000 0.0000 -67.7085 54.3634 -62.7030 -20.5812 31.3362 -5.8306 0.0000 0.0000 19.7354 -25.8922 30.4873 -13.8349 7.1250 -0.0000 -0.0000 3.0491 3.1807 3.2180
24.3366 16.5468 -6.0211 -181.0520 33.0150 -168.1960 0.0000 0.0000 0.0000 -14.5441 -1.3593 10.3028 0.4609 4.3551 12.0778 0.2788 5.4621 9.5684 4.9780 13.3590 40.7277 0.0000 0.0000 0.0000 20.5588 4.0718 -20.6653 -1.3918 -7.4638 21.0969 -0.2701 -5.6749 -13.5346 -0.0047 0.4420 -1.2146 -0.3119 -3.7397 0.0147 2.6907 -4.9600 2.9248 2.7965 -2.4836 3.2682 0.7569 -1.5842 -6.4979 -0.5867 -1.7395 -9.5757 -0.3194 -0.6862 -1.9114 0.0000 0.0000 0.0000 80.4296 -59.9910 -93.5393 23.7415 -34.8897 -7.5582 -0.0000 -0.0000 17.3710 49.0074 46.4066 39.8069 -7.1250 0.0000 -0.0000 59.1023 86.1830 55.7661 0.0000 0.0000 0.0000 -67.7179 54.4327 -62.1063 -20.6962 31.4720 -5.8905 0.0000 0.0000 19.7312 -25.7309 30.6015 -13.7843 7.1250 -0.0000 -0.0000 3.1601 3.2612 3.3397
24.3342 16.5508 -6.0285 -180.9810 32.8347 -168.0880 0.0000 0.0000 0.0000 -14.4350 -1.4691 10.2806 0.4584 4.3431 12.0439 0.2703 5.5480 9.4524 5.0189 13.4050 40.9041 0.0000 0.0000 0.0000 20.6606 3.7652 -20.7327 -1.3687 -7.4042 20.9184 -0.2815 -5.4470 -13.5048 -0.0002 -0.0894 0.2456 -0.1982 -3.7854 0.0975 2.7157 -5.0229 2.7107 2.7706 -2.5123 2.9956 0.1751 -1.4254 -6.5739 -0.1233 -1.4347 -10.0207 -0.0775 -0.5064 -2.0314 0.0000 -0.0000 0.0000 81.0116 -60.3065 -94.1198 23.4536 -34.5811 -7.3941 -0.0000 -0.0000 17.7360 50.3285 47.0506 41.4296 -7.1250 0.0000 -0.0000 78.6888 86.4740 75.2041 0.0000 -0.0000 0.0000 -67.6938 54.6519 -62.5923 -20.5580 31.3087 -5.8185 0.0000 0.0000 19.1441 -26.0376 30.3246 -13.8563 7.1250 -0.0000 -0.0000 2.9389 3.0457 3.0949
24.3056 16.5671 -6.0451 -181.1990 32.4315 -167.6710 0.0000 0.0000 0.0000 -14.7488 -2.3951 9.8924 0.4596 4.3487 12.0599 0.2362 6.0237 9.0141 5.0545 13.4449 41.0577 0.0000 0.0000 0.0000 20.4521 3.2368 -21.4610 -1.3396 -7.3283 20.6918 -0.2672 -5.3874 -13.2318 -0.0097 0.6345 -1.7436 0.3519 -3.9835 -0.0001 2.5311 -5.2991 2.1815 2.2827 -2.6389 2.4492 0.1354 -1.3762 -7.1371 -0.0560 -1.3536 -9.7792 -0.0530 -0.4628 -1.8567 0.0000 -0.0000 0.0000 81.5587 -60.8462 -94.9658 23.1367 -34.2379 -7.2150 -0.0000 -0.0000 18.5160 50.4123 46.9324 41.4595 -7.1250 0.0000 -0.0000 78.0473 86.3815 74.4774 0.0000 -0.0000 0.0000 -67.8999 55.1744 -63.7508 -20.2354 30.9249 -5.6518 0.0000 0.0000 18.4428 -26.4246 29.9088 -13.9167 7.1250 -0.0000 -0.0000 2.6480 2.7034 2.7729
24.2975 16.5741 -6.0525 -181.2690 32.2447 -167.4460 0.0000 0.0000 0.0000 -14.8759 -2.9015 9.7800 0.4579 4.3410 12.0380 0.2070 6.4254 8.6525 5.1189 13.5164 41.3338 0.0000 0.0000 0.0000 20.3743 3.3085 -21.6096 -1.3128 -7.2575 20.4804 -0.2334 -5.7512 -13.0291 -0.0112 0.6831 -1.8772 0.5506 -4.1660 -0.0553 2.4842 -5.5468 1.8776 2.1279 -2.7608 2.1531 1.1865 -1.5212 -7.1667 -1.1254 -1.6626 -9.9594 -0.5638 -0.6317 -1.9345 0.0000 -0.0000 0.0000 81.8752 -61.1601 -95.7532 22.7817 -33.8492 -7.0163 -0.0000 -0.0000 19.1947 49.9867 46.4892 40.8239 -7.1250 0.0000 -0.0000 69.1707 86.1598 65.5319 0.0000 -0.0000 0.0000 -68.5020 55.6706 -65.0170 -19.9182 30.5437 -5.4897 0.0000 0.0000 18.1602 -26.6102 29.7218 -13.9490 7.1250 -0.0000 -0.0000 2.5102 2.5519 2.6220
